<?xml version="1.0" encoding="UTF-8"?><svg id="Calque_2" xmlns="http://www.w3.org/2000/svg" viewBox="0 0 268.56 38.4"><defs><style>.cls-1{fill:#000;stroke-width:0px;}</style></defs><g id="Calque_1-2"><path class="cls-1" d="M15.17,1.2h8.22l9.18,19.44L41.81,1.2h8.1v36h-8.76v-16.02l-7.86,16.22h-1.44l-7.86-16.34v16.14h-8.82V1.2Z"/><path class="cls-1" d="M88.07,1.2h15.06c7.74,0,12.78,4.68,12.78,11.46,0,6.3-3.18,9.84-8.52,11.16l9.72,13.38h-11.04l-9.18-13.44v13.44h-8.82V1.2ZM103.97,16.8c1.98,0,3.3-2.04,3.3-4.14s-1.56-3.96-3.54-3.96h-6.84v8.1h7.08Z"/><path class="cls-1" d="M139.97,0c11.34,0,19.38,8.46,19.38,19.2s-8.04,19.2-19.38,19.2-19.38-8.46-19.38-19.2S128.57,0,139.97,0ZM139.97,30.06c6.36,0,10.44-4.8,10.44-10.86s-4.08-10.86-10.44-10.86-10.44,4.8-10.44,10.86,4.02,10.86,10.44,10.86Z"/><path class="cls-1" d="M160.79,1.2h9.18l7.26,17.34,7.26-17.34h9.18l-15.9,36.2h-1.08L160.79,1.2Z"/><path class="cls-1" d="M197.15,1.2h23.82v7.8h-15v6.48h13.86v7.68h-13.86v6.48h15.66v7.56h-24.48V1.2Z"/><path class="cls-1" d="M231.31,29.82c2.58,0,4.32,1.56,4.32,4.14s-1.74,4.14-4.32,4.14-4.32-1.56-4.32-4.14,1.74-4.14,4.32-4.14Z"/><path class="cls-1" d="M240.18,1.2h8.76v22.56c0,4.8,2.28,6.48,5.34,6.48,3.36,0,5.46-1.68,5.46-6.48V1.2h8.82v23.88c0,8.52-6.36,13.32-14.28,13.32s-14.1-5.04-14.1-13.32V1.2Z"/><path class="cls-1" d="M0,1.2h8.88v36.26H0V1.2Z"/><path id="P" class="cls-1" d="M70.67,1.15h-15.07v36.01h8.77V15.05h-5.3l7.85-9.32,7.85,9.32h-5.3v9.14h1.19c6.67,0,11.71-4.8,11.71-11.52,0-6.07-4.32-11.53-11.71-11.53Z"/></g></svg>