<?xml version="1.0" encoding="UTF-8"?><svg id="Calque_2" xmlns="http://www.w3.org/2000/svg" viewBox="0 0 163.62 187.94"><defs><style>.cls-1{fill:#000;stroke-width:0px;}</style></defs><g id="Calque_1-2"><path id="I" class="cls-1" d="M3.34,0h12.92v52.72H3.34V0Z"/><path id="M" class="cls-1" d="M24.69,0h12.04l13.44,28.47L63.7,0h11.86v52.72h-12.83v-23.46l-11.51,23.95h-2.11l-11.51-24.13v23.64h-12.92V0Z"/><path id="R" class="cls-1" d="M3.34,65.9h22.05c11.33,0,18.72,6.85,18.72,16.78,0,9.23-4.66,14.41-12.48,16.34l14.23,19.6h-16.17l-13.44-19.68v19.68H3.34v-52.72ZM26.62,88.74c2.9,0,4.83-2.99,4.83-6.06s-2.28-5.8-5.18-5.8h-10.02v11.86h10.37Z"/><path id="P" class="cls-1" d="M106.05,0h-22.05v52.71h12.83V20.36h-7.75l11.49-13.64,11.49,13.64h-7.75v13.38h1.75c9.76,0,17.13-7.03,17.13-16.86C123.18,8,116.86,0,106.05,0Z"/><path id="U" class="cls-1" d="M118.52,128.95l13.9-.03.07,35.8c.02,7.62,3.64,10.28,8.49,10.27,5.33-.01,8.66-2.68,8.64-10.3l-.07-35.8,13.99-.03.08,37.89c.03,13.52-10.05,21.16-22.62,21.18s-22.39-7.95-22.41-21.09l-.08-37.89Z"/><path id="point" class="cls-1" d="M105.13,173.71c3.78,0,6.33,2.28,6.33,6.06s-2.55,6.06-6.33,6.06-6.33-2.28-6.33-6.06,2.55-6.06,6.33-6.06Z"/><path id="E" class="cls-1" d="M53.24,131.79h34.88v11.42h-21.97v9.49h20.3v11.25h-20.3v9.49h22.93v11.07h-35.85v-52.72Z"/><path id="V" class="cls-1" d="M0,131.79h13.44l10.63,25.39,10.63-25.39h13.44l-23.28,53.22h-1.58L0,131.79Z"/><path id="O" class="cls-1" d="M79.34,64.14c16.61,0,28.38,12.39,28.38,28.12s-11.77,28.12-28.38,28.12-28.38-12.39-28.38-28.12,11.69-28.12,28.38-28.12ZM79.34,108.16c9.31,0,15.29-7.03,15.29-15.9s-5.97-15.9-15.29-15.9-15.29,7.03-15.29,15.9,5.89,15.9,15.29,15.9Z"/></g></svg>